<svg width="39" height="39" viewBox="0 0 39 39" fill="none" xmlns="http://www.w3.org/2000/svg">
<rect width="39" height="39" rx="19.5" fill="white"/>
<path d="M21.0272 10.8928C21.0544 10.7913 21.1013 10.6961 21.1652 10.6127C21.2292 10.5293 21.3089 10.4593 21.4 10.4068C21.491 10.3542 21.5914 10.3201 21.6956 10.3064C21.7998 10.2926 21.9057 10.2996 22.0072 10.3268C23.4903 10.7138 24.8435 11.4891 25.9273 12.5729C27.0111 13.6567 27.7864 15.0098 28.1733 16.4929C28.2006 16.5944 28.2075 16.7003 28.1938 16.8045C28.1801 16.9087 28.146 17.0091 28.0934 17.1001C28.0408 17.1912 27.9708 17.2709 27.8874 17.3349C27.804 17.3988 27.7089 17.4457 27.6073 17.4729C27.5398 17.4906 27.4702 17.4997 27.4003 17.4999C27.224 17.4999 27.0527 17.4416 26.9129 17.3342C26.7731 17.2268 26.6727 17.0762 26.6273 16.9059C26.3117 15.6952 25.679 14.5906 24.7943 13.7059C23.9096 12.8212 22.8049 12.1884 21.5942 11.8728C21.4926 11.8458 21.3973 11.799 21.3138 11.735C21.2303 11.6711 21.1602 11.5914 21.1075 11.5004C21.0549 11.4093 21.0207 11.3088 21.0069 11.2046C20.9931 11.1003 21 10.9944 21.0272 10.8928ZM20.7942 15.0729C22.1732 15.4409 23.0593 16.3269 23.4273 17.7059C23.4727 17.8762 23.573 18.0268 23.7128 18.1342C23.8526 18.2416 24.024 18.2999 24.2003 18.2999C24.2701 18.2997 24.3397 18.2906 24.4073 18.2729C24.5088 18.2457 24.604 18.1988 24.6874 18.1349C24.7708 18.0709 24.8408 17.9912 24.8933 17.9002C24.9459 17.8091 24.98 17.7087 24.9937 17.6045C25.0074 17.5003 25.0005 17.3944 24.9733 17.2929C24.4613 15.3769 23.1233 14.0388 21.2072 13.5268C21.1057 13.4997 20.9998 13.4929 20.8957 13.5067C20.7915 13.5204 20.6911 13.5546 20.6001 13.6072C20.5092 13.6598 20.4295 13.7298 20.3656 13.8132C20.3017 13.8967 20.2548 13.9918 20.2277 14.0933C20.2006 14.1949 20.1937 14.3007 20.2075 14.4049C20.2213 14.509 20.2555 14.6095 20.3081 14.7004C20.3607 14.7914 20.4307 14.8711 20.5141 14.935C20.5975 14.9989 20.6927 15.0457 20.7942 15.0729ZM28.9884 24.6079C28.81 25.963 28.1446 27.2068 27.1162 28.107C26.0879 29.0073 24.767 29.5024 23.4003 29.5C15.4601 29.5 9.00001 23.0399 9.00001 15.0999C8.99756 13.7331 9.4927 12.4122 10.393 11.3839C11.2932 10.3556 12.537 9.69011 13.8921 9.5118C14.2348 9.46996 14.5818 9.54006 14.8813 9.71164C15.1808 9.88322 15.4169 10.1471 15.5541 10.4638L17.6662 15.1789V15.1909C17.7712 15.4333 17.8146 15.698 17.7925 15.9613C17.7703 16.2247 17.6833 16.4784 17.5392 16.6999C17.5212 16.7269 17.5022 16.7519 17.4822 16.7769L15.4001 19.2449C16.1491 20.7669 17.7412 22.3449 19.2832 23.0959L21.7172 21.0249C21.7411 21.0048 21.7662 20.9861 21.7922 20.9689C22.0135 20.8213 22.2681 20.7312 22.533 20.7068C22.7979 20.6823 23.0647 20.7243 23.3093 20.8289L23.3223 20.8349L28.0333 22.9459C28.3506 23.0827 28.6151 23.3185 28.7873 23.6181C28.9594 23.9177 29.03 24.2649 28.9884 24.6079ZM27.4003 24.4079C27.4003 24.4079 27.3933 24.4079 27.3893 24.4079L22.6892 22.3029L20.2542 24.3739C20.2306 24.394 20.2059 24.4126 20.1802 24.4299C19.95 24.5836 19.6838 24.6748 19.4077 24.6948C19.1317 24.7148 18.8551 24.6628 18.6052 24.5439C16.7321 23.6389 14.8651 21.7859 13.9591 19.9329C13.8391 19.6848 13.7853 19.4098 13.8028 19.1348C13.8203 18.8597 13.9086 18.5938 14.0591 18.3629C14.0761 18.3358 14.0951 18.31 14.1161 18.2859L16.2001 15.8149L14.1001 11.1148C14.0997 11.1108 14.0997 11.1068 14.1001 11.1028C13.1303 11.2293 12.2399 11.705 11.5957 12.4407C10.9514 13.1765 10.5974 14.1219 10.6 15.0999C10.6037 18.4935 11.9535 21.7471 14.3532 24.1468C16.7529 26.5465 20.0066 27.8963 23.4003 27.9C24.3776 27.9033 25.3228 27.5506 26.059 26.9077C26.7952 26.2649 27.272 25.3759 27.4003 24.4069V24.4079Z" fill="#099DFF"/>
</svg>
