<svg width="20" height="20" viewBox="0 0 20 20" fill="none" xmlns="http://www.w3.org/2000/svg">
<path d="M12.0272 1.39281C12.0544 1.29128 12.1013 1.1961 12.1652 1.1127C12.2292 1.0293 12.3089 0.95932 12.4 0.906757C12.491 0.854194 12.5914 0.820079 12.6956 0.806361C12.7998 0.792642 12.9057 0.799589 13.0072 0.826806C14.4903 1.21376 15.8435 1.98906 16.9273 3.07286C18.0111 4.15667 18.7864 5.50979 19.1733 6.99287C19.2006 7.09438 19.2075 7.20026 19.1938 7.30446C19.1801 7.40866 19.146 7.50913 19.0934 7.60014C19.0408 7.69115 18.9708 7.77091 18.8874 7.83487C18.804 7.89882 18.7089 7.94572 18.6073 7.97288C18.5398 7.99063 18.4702 7.9997 18.4003 7.99988C18.224 7.99987 18.0527 7.94163 17.9129 7.83422C17.7731 7.7268 17.6727 7.57622 17.6273 7.40587C17.3117 6.19518 16.679 5.09056 15.7943 4.20586C14.9096 3.32117 13.8049 2.68841 12.5942 2.37282C12.4926 2.34577 12.3973 2.29895 12.3138 2.23504C12.2303 2.17114 12.1602 2.09139 12.1075 2.00037C12.0549 1.90935 12.0207 1.80884 12.0069 1.70459C11.9931 1.60034 12 1.49439 12.0272 1.39281ZM11.7942 5.57285C13.1732 5.94086 14.0593 6.82686 14.4273 8.20588C14.4727 8.37622 14.573 8.52681 14.7128 8.63422C14.8526 8.74164 15.024 8.79988 15.2003 8.79988C15.2701 8.79971 15.3397 8.79063 15.4073 8.77288C15.5088 8.74573 15.604 8.69883 15.6874 8.63488C15.7708 8.57092 15.8408 8.49116 15.8933 8.40015C15.9459 8.30914 15.98 8.20867 15.9937 8.10447C16.0074 8.00027 16.0005 7.89439 15.9733 7.79287C15.4613 5.87685 14.1233 4.53884 12.2072 4.02684C12.1057 3.99972 11.9998 3.99286 11.8957 4.00665C11.7915 4.02045 11.6911 4.05462 11.6001 4.10723C11.5092 4.15983 11.4295 4.22984 11.3656 4.31324C11.3017 4.39665 11.2548 4.49183 11.2277 4.59334C11.2006 4.69485 11.1937 4.80071 11.2075 4.90488C11.2213 5.00904 11.2555 5.10947 11.3081 5.20042C11.3607 5.29138 11.4307 5.37108 11.5141 5.43499C11.5975 5.49889 11.6927 5.54573 11.7942 5.57285ZM19.9884 15.1079C19.81 16.463 19.1446 17.7068 18.1162 18.607C17.0879 19.5073 15.767 20.0024 14.4003 20C6.46012 20 9.0488e-06 13.5399 9.0488e-06 5.59985C-0.00244097 4.23313 0.492705 2.91225 1.39297 1.88391C2.29323 0.855574 3.53704 0.190106 4.89209 0.0117978C5.23475 -0.0300417 5.58175 0.0400599 5.8813 0.211638C6.18084 0.383216 6.41686 0.647069 6.55412 0.963807L8.66616 5.67885V5.69085C8.77125 5.93331 8.81465 6.19802 8.79249 6.46134C8.77032 6.72466 8.68329 6.97839 8.53916 7.19987C8.52116 7.22687 8.50216 7.25187 8.48215 7.27687L6.40012 9.74489C7.14913 11.2669 8.74116 12.8449 10.2832 13.5959L12.7172 11.5249C12.7411 11.5048 12.7662 11.4861 12.7922 11.4689C13.0135 11.3213 13.2681 11.2312 13.533 11.2068C13.7979 11.1823 14.0647 11.2243 14.3093 11.3289L14.3223 11.3349L19.0333 13.4459C19.3506 13.5827 19.6151 13.8185 19.7873 14.1181C19.9594 14.4177 20.03 14.7649 19.9884 15.1079ZM18.4003 14.9079C18.4003 14.9079 18.3933 14.9079 18.3893 14.9079L13.6892 12.8029L11.2542 14.8739C11.2306 14.894 11.2059 14.9126 11.1802 14.9299C10.95 15.0836 10.6838 15.1748 10.4077 15.1948C10.1317 15.2148 9.85514 15.1628 9.60517 15.0439C7.73214 14.1389 5.86511 12.2859 4.95909 10.4329C4.83912 10.1848 4.78529 9.90982 4.80281 9.63475C4.82033 9.35968 4.90861 9.0938 5.0591 8.86288C5.07606 8.83577 5.09512 8.81002 5.1161 8.78588L7.20013 6.31486L5.1001 1.61481C5.0997 1.61082 5.0997 1.6068 5.1001 1.60281C4.13033 1.72931 3.23994 2.20498 2.59567 2.94074C1.95139 3.6765 1.59742 4.62188 1.60004 5.59985C1.60374 8.99352 2.95352 12.2471 5.35323 14.6468C7.75293 17.0465 11.0066 18.3963 14.4003 18.4C15.3776 18.4033 16.3228 18.0506 17.059 17.4077C17.7952 16.7649 18.272 15.8759 18.4003 14.9069V14.9079Z" fill="#099DFF"/>
</svg>
